<?xml version="1.0" encoding="UTF-8"?>
<!DOCTYPE svg PUBLIC "-//W3C//DTD SVG 1.1//EN" "http://www.w3.org/Graphics/SVG/1.1/DTD/svg11.dtd">
<svg xmlns="http://www.w3.org/2000/svg" version="1.1" width="500px" height="500px" style="shape-rendering:geometricPrecision; text-rendering:geometricPrecision; image-rendering:optimizeQuality; fill-rule:evenodd; clip-rule:evenodd" xmlns:xlink="http://www.w3.org/1999/xlink">
<g><path style="opacity:0.997" fill="#f6f6f6" d="M 295.5,109.5 C 295.427,111.027 296.094,112.027 297.5,112.5C 300.073,113.879 301.573,115.879 302,118.5C 296.622,124.38 290.789,129.714 284.5,134.5C 283.609,133.89 282.609,133.557 281.5,133.5C 276.809,129.803 272.142,126.136 267.5,122.5C 267.027,121.094 266.027,120.427 264.5,120.5C 235.069,107.546 206.735,109.713 179.5,127C 155.319,147.049 145.652,172.549 150.5,203.5C 150.232,205.099 150.566,206.432 151.5,207.5C 155.166,219.835 161.166,230.835 169.5,240.5C 169.427,242.027 170.094,243.027 171.5,243.5C 176.457,247.651 181.79,251.317 187.5,254.5C 187.81,255.738 188.31,255.738 189,254.5C 189.977,252.26 190.477,249.927 190.5,247.5C 199.794,219.698 217.794,199.532 244.5,187C 278.954,173.514 312.954,174.514 346.5,190C 355.393,194.897 363.06,201.23 369.5,209C 364.353,215.646 358.353,221.479 351.5,226.5C 350.478,226.145 349.811,225.478 349.5,224.5C 349.027,223.094 348.027,222.427 346.5,222.5C 321.198,203.591 293.531,199.091 263.5,209C 238.451,218.601 222.785,236.434 216.5,262.5C 216.821,264.048 217.821,264.715 219.5,264.5C 240.717,265.869 259.717,260.202 276.5,247.5C 279.089,246.581 281.089,244.914 282.5,242.5C 282.517,240.972 283.184,240.472 284.5,241C 290.566,247.066 296.566,253.066 302.5,259C 285.782,277.69 264.782,287.857 239.5,289.5C 231.167,289.5 222.833,289.5 214.5,289.5C 214.263,290.791 214.596,291.791 215.5,292.5C 217.599,305.478 222.599,317.145 230.5,327.5C 230.427,329.027 231.094,330.027 232.5,330.5C 258.052,355.273 288.052,362.44 322.5,352C 328.35,349.778 334.017,347.278 339.5,344.5C 340.497,323.006 340.831,301.34 340.5,279.5C 349.5,279.5 358.5,279.5 367.5,279.5C 367.5,305.5 367.5,331.5 367.5,357.5C 338.608,378.851 306.274,386.685 270.5,381C 258.386,378.687 247.053,374.521 236.5,368.5C 236.027,367.094 235.027,366.427 233.5,366.5C 231.566,365.89 229.899,364.89 228.5,363.5C 228.027,362.094 227.027,361.427 225.5,361.5C 224.833,361.5 224.5,361.167 224.5,360.5C 224.027,359.094 223.027,358.427 221.5,358.5C 212.047,351.045 204.38,342.045 198.5,331.5C 198.715,329.821 198.048,328.821 196.5,328.5C 189.542,314.337 185.542,299.337 184.5,283.5C 177.16,280.835 170.494,277.168 164.5,272.5C 164.027,271.094 163.027,270.427 161.5,270.5C 161.027,269.094 160.027,268.427 158.5,268.5C 128.289,243.745 115.789,211.745 121,172.5C 128.84,130.659 153.007,103.159 193.5,90C 223.183,81.9846 251.85,84.6513 279.5,98C 285.27,101.277 290.603,105.11 295.5,109.5 Z"/></g>
<g><path style="opacity:0.451" fill="#606060" d="M 295.5,109.5 C 296.906,109.973 297.573,110.973 297.5,112.5C 296.094,112.027 295.427,111.027 295.5,109.5 Z"/></g>
<g><path style="opacity:0.208" fill="#5b5b5b" d="M 264.5,120.5 C 266.027,120.427 267.027,121.094 267.5,122.5C 265.973,122.573 264.973,121.906 264.5,120.5 Z"/></g>
<g><path style="opacity:0.259" fill="#6e6e6e" d="M 281.5,133.5 C 282.609,133.557 283.609,133.89 284.5,134.5C 283.221,135.715 282.221,135.382 281.5,133.5 Z"/></g>
<g><path style="opacity:0.525" fill="#5f5f5f" d="M 150.5,203.5 C 151.249,204.531 151.915,205.698 152.5,207C 152.272,207.399 151.938,207.565 151.5,207.5C 150.566,206.432 150.232,205.099 150.5,203.5 Z"/></g>
<g><path style="opacity:0.643" fill="#6c6c6c" d="M 346.5,222.5 C 348.027,222.427 349.027,223.094 349.5,224.5C 347.973,224.573 346.973,223.906 346.5,222.5 Z"/></g>
<g><path style="opacity:0.498" fill="#646464" d="M 169.5,240.5 C 170.906,240.973 171.573,241.973 171.5,243.5C 170.094,243.027 169.427,242.027 169.5,240.5 Z"/></g>
<g><path style="opacity:0.784" fill="#999999" d="M 282.5,242.5 C 281.089,244.914 279.089,246.581 276.5,247.5C 277.911,245.086 279.911,243.419 282.5,242.5 Z"/></g>
<g><path style="opacity:0.835" fill="#747474" d="M 190.5,247.5 C 190.477,249.927 189.977,252.26 189,254.5C 188.31,255.738 187.81,255.738 187.5,254.5C 188.323,252.013 189.323,249.679 190.5,247.5 Z"/></g>
<g><path style="opacity:0.192" fill="#242424" d="M 216.5,262.5 C 217.71,262.932 218.71,263.599 219.5,264.5C 217.821,264.715 216.821,264.048 216.5,262.5 Z"/></g>
<g><path style="opacity:0.169" fill="#636363" d="M 158.5,268.5 C 160.027,268.427 161.027,269.094 161.5,270.5C 159.973,270.573 158.973,269.906 158.5,268.5 Z"/></g>
<g><path style="opacity:0.184" fill="#5b5b5b" d="M 161.5,270.5 C 163.027,270.427 164.027,271.094 164.5,272.5C 162.973,272.573 161.973,271.906 161.5,270.5 Z"/></g>
<g><path style="opacity:0.116" fill="#3b3b3b" d="M 367.5,357.5 C 367.5,331.5 367.5,305.5 367.5,279.5C 358.5,279.5 349.5,279.5 340.5,279.5C 340.831,301.34 340.497,323.006 339.5,344.5C 339.5,322.5 339.5,300.5 339.5,278.5C 349.167,278.5 358.833,278.5 368.5,278.5C 368.831,305.005 368.498,331.339 367.5,357.5 Z"/></g>
<g><path style="opacity:0.494" fill="#838383" d="M 239.5,289.5 C 231.281,289.846 223.281,290.846 215.5,292.5C 214.596,291.791 214.263,290.791 214.5,289.5C 222.833,289.5 231.167,289.5 239.5,289.5 Z"/></g>
<g><path style="opacity:0.831" fill="#737373" d="M 196.5,328.5 C 198.048,328.821 198.715,329.821 198.5,331.5C 197.599,330.71 196.932,329.71 196.5,328.5 Z"/></g>
<g><path style="opacity:0.506" fill="#606060" d="M 230.5,327.5 C 231.906,327.973 232.573,328.973 232.5,330.5C 231.094,330.027 230.427,329.027 230.5,327.5 Z"/></g>
<g><path style="opacity:0.518" fill="#646464" d="M 221.5,358.5 C 223.027,358.427 224.027,359.094 224.5,360.5C 222.973,360.573 221.973,359.906 221.5,358.5 Z"/></g>
<g><path style="opacity:0.161" fill="#5f5f5f" d="M 225.5,361.5 C 227.027,361.427 228.027,362.094 228.5,363.5C 226.973,363.573 225.973,362.906 225.5,361.5 Z"/></g>
<g><path style="opacity:0.204" fill="#6e6e6e" d="M 233.5,366.5 C 235.027,366.427 236.027,367.094 236.5,368.5C 234.973,368.573 233.973,367.906 233.5,366.5 Z"/></g>
</svg>
